<svg width="261" height="58" viewBox="0 0 261 58" fill="none" xmlns="http://www.w3.org/2000/svg">
<path d="M49.17 18.3H59.431C61.8077 18.3 63.9157 18.7443 65.755 19.633C67.5943 20.5217 69.0203 21.7823 70.033 23.415C71.0457 25.0477 71.552 26.9593 71.552 29.15C71.552 31.3407 71.0457 33.2523 70.033 34.885C69.0203 36.5177 67.5943 37.7783 65.755 38.667C63.9157 39.5557 61.8077 40 59.431 40H49.17V18.3ZM59.183 35.102C61.043 35.102 62.531 34.575 63.647 33.521C64.7837 32.467 65.352 31.01 65.352 29.15C65.352 27.29 64.7837 25.833 63.647 24.779C62.531 23.725 61.043 23.198 59.183 23.198H55.308V35.102H59.183ZM81.6633 22.919C84.4533 22.919 86.582 23.5597 88.0493 24.841C89.5167 26.1017 90.2503 28.0443 90.2503 30.669V40H84.7633V37.83C83.916 39.4627 82.2627 40.279 79.8033 40.279C78.5013 40.279 77.375 40.0517 76.4243 39.597C75.4737 39.1423 74.7503 38.5327 74.2543 37.768C73.779 36.9827 73.5413 36.094 73.5413 35.102C73.5413 33.5107 74.151 32.281 75.3703 31.413C76.5897 30.5243 78.4703 30.08 81.0123 30.08H84.3603C84.257 28.3027 83.0687 27.414 80.7953 27.414C79.9893 27.414 79.173 27.5483 78.3463 27.817C77.5197 28.065 76.817 28.4163 76.2383 28.871L74.2543 24.872C75.1843 24.252 76.3107 23.7767 77.6333 23.446C78.9767 23.0947 80.32 22.919 81.6633 22.919ZM81.4463 36.559C82.1283 36.559 82.7277 36.3937 83.2443 36.063C83.761 35.7323 84.133 35.2467 84.3603 34.606V33.149H81.8183C80.103 33.149 79.2453 33.7173 79.2453 34.854C79.2453 35.3707 79.4417 35.784 79.8343 36.094C80.227 36.404 80.7643 36.559 81.4463 36.559ZM101.594 34.11L99.8581 35.877V40H93.9681V16.998H99.8581V29.057L105.872 23.198H112.847L105.872 30.39L113.436 40H106.306L101.594 34.11ZM142.029 23.198L136.046 40H130.342L127.18 30.855L123.894 40H118.19L112.207 23.198H117.787L121.228 33.366L124.793 23.198H129.815L133.287 33.459L136.852 23.198H142.029ZM150.414 22.919C153.204 22.919 155.333 23.5597 156.8 24.841C158.268 26.1017 159.001 28.0443 159.001 30.669V40H153.514V37.83C152.667 39.4627 151.014 40.279 148.554 40.279C147.252 40.279 146.126 40.0517 145.175 39.597C144.225 39.1423 143.501 38.5327 143.005 37.768C142.53 36.9827 142.292 36.094 142.292 35.102C142.292 33.5107 142.902 32.281 144.121 31.413C145.341 30.5243 147.221 30.08 149.763 30.08H153.111C153.008 28.3027 151.82 27.414 149.546 27.414C148.74 27.414 147.924 27.5483 147.097 27.817C146.271 28.065 145.568 28.4163 144.989 28.871L143.005 24.872C143.935 24.252 145.062 23.7767 146.384 23.446C147.728 23.0947 149.071 22.919 150.414 22.919ZM150.197 36.559C150.879 36.559 151.479 36.3937 151.995 36.063C152.512 35.7323 152.884 35.2467 153.111 34.606V33.149H150.569C148.854 33.149 147.996 33.7173 147.996 34.854C147.996 35.3707 148.193 35.784 148.585 36.094C148.978 36.404 149.515 36.559 150.197 36.559ZM173.662 22.919C175.749 22.919 177.423 23.539 178.684 24.779C179.965 26.019 180.606 27.8893 180.606 30.39V40H174.716V31.351C174.716 29.057 173.796 27.91 171.957 27.91C170.944 27.91 170.128 28.2407 169.508 28.902C168.909 29.5633 168.609 30.5553 168.609 31.878V40H162.719V16.998H168.609V24.748C169.25 24.1487 170.004 23.694 170.872 23.384C171.74 23.074 172.67 22.919 173.662 22.919ZM205.167 18.3L195.712 40H191.744L182.258 18.3H186.629L193.852 35.04L201.137 18.3H205.167ZM207.236 23.446H211.111V40H207.236V23.446ZM209.189 20.718C208.487 20.718 207.898 20.501 207.422 20.067C206.947 19.6123 206.709 19.0543 206.709 18.393C206.709 17.7317 206.947 17.184 207.422 16.75C207.898 16.2953 208.487 16.068 209.189 16.068C209.892 16.068 210.481 16.285 210.956 16.719C211.432 17.1323 211.669 17.6593 211.669 18.3C211.669 18.982 211.432 19.5607 210.956 20.036C210.502 20.4907 209.913 20.718 209.189 20.718ZM232.41 16.998V40H228.69V37.861C228.05 38.6463 227.254 39.2353 226.303 39.628C225.373 40.0207 224.34 40.217 223.203 40.217C221.612 40.217 220.176 39.8657 218.894 39.163C217.634 38.4603 216.642 37.4683 215.918 36.187C215.195 34.885 214.833 33.397 214.833 31.723C214.833 30.049 215.195 28.5713 215.918 27.29C216.642 26.0087 217.634 25.0167 218.894 24.314C220.176 23.6113 221.612 23.26 223.203 23.26C224.299 23.26 225.301 23.446 226.21 23.818C227.12 24.19 227.895 24.748 228.535 25.492V16.998H232.41ZM223.668 36.9C224.598 36.9 225.435 36.6933 226.179 36.28C226.923 35.846 227.512 35.2363 227.946 34.451C228.38 33.6657 228.597 32.7563 228.597 31.723C228.597 30.6897 228.38 29.7803 227.946 28.995C227.512 28.2097 226.923 27.6103 226.179 27.197C225.435 26.763 224.598 26.546 223.668 26.546C222.738 26.546 221.901 26.763 221.157 27.197C220.413 27.6103 219.824 28.2097 219.39 28.995C218.956 29.7803 218.739 30.6897 218.739 31.723C218.739 32.7563 218.956 33.6657 219.39 34.451C219.824 35.2363 220.413 35.846 221.157 36.28C221.901 36.6933 222.738 36.9 223.668 36.9ZM242.595 40.217C241.251 40.217 239.939 40.0413 238.658 39.69C237.376 39.3387 236.353 38.8943 235.589 38.357L237.077 35.412C237.821 35.908 238.709 36.311 239.743 36.621C240.797 36.9103 241.83 37.055 242.843 37.055C245.157 37.055 246.315 36.4453 246.315 35.226C246.315 34.6473 246.015 34.2443 245.416 34.017C244.837 33.7897 243.897 33.5727 242.595 33.366C241.231 33.1593 240.115 32.9217 239.247 32.653C238.399 32.3843 237.655 31.9193 237.015 31.258C236.395 30.576 236.085 29.6357 236.085 28.437C236.085 26.8663 236.736 25.616 238.038 24.686C239.36 23.7353 241.138 23.26 243.37 23.26C244.506 23.26 245.643 23.3943 246.78 23.663C247.916 23.911 248.846 24.252 249.57 24.686L248.082 27.631C246.676 26.8043 245.095 26.391 243.339 26.391C242.202 26.391 241.334 26.5667 240.735 26.918C240.156 27.2487 239.867 27.693 239.867 28.251C239.867 28.871 240.177 29.3153 240.797 29.584C241.437 29.832 242.419 30.0697 243.742 30.297C245.064 30.5037 246.149 30.7413 246.997 31.01C247.844 31.2787 248.567 31.7333 249.167 32.374C249.787 33.0147 250.097 33.924 250.097 35.102C250.097 36.652 249.425 37.892 248.082 38.822C246.738 39.752 244.909 40.217 242.595 40.217Z" fill="white"/>
<path fill-rule="evenodd" clip-rule="evenodd" d="M40.3478 31.002C43.0046 29.4454 42.98 25.5964 40.3036 24.0739L12.9778 8.5292C10.3014 7.00666 6.98042 8.95241 7.00009 12.0315L7.20084 43.4687C7.22051 46.5478 10.5661 48.451 13.2228 46.8944L40.3478 31.002ZM18.8696 19.986C18.7508 19.8547 18.6901 19.6954 18.7104 19.5262C18.7358 19.2313 18.999 19.0322 19.2924 19.0795C21.1263 19.2921 22.8106 20.1274 24.0774 21.41C25.3215 22.6746 26.1834 24.3404 26.4153 26.2295C26.6927 28.4882 26.0493 30.6098 24.7737 32.2671C23.4981 33.9245 21.6055 35.0739 19.3996 35.3448C17.5782 35.5684 15.8229 35.1587 14.3383 34.278C12.8286 33.3587 11.6099 31.9659 10.9301 30.2777C10.8695 30.1184 10.8898 29.9492 10.9733 29.793C11.1277 29.5448 11.4465 29.464 11.6918 29.6214C12.2507 29.9905 12.8779 30.247 13.5532 30.3933C14.1856 30.5241 14.8685 30.5653 15.5566 30.4808C17.1959 30.2796 18.6103 29.4181 19.5492 28.1981C20.4882 26.9781 20.9695 25.3767 20.7653 23.7134C20.6745 22.9742 20.4674 22.291 20.1464 21.6843C19.8203 21.0365 19.3804 20.4652 18.8696 19.986Z" fill="white"/>
</svg>
