<svg width="128" height="128" viewBox="0 0 128 128" fill="none" xmlns="http://www.w3.org/2000/svg">
<path fill-rule="evenodd" clip-rule="evenodd" d="M116.099 68.9724C120.084 66.6375 120.048 60.8642 116.033 58.5803L17.9668 2.7938C13.9521 0.509992 8.97064 3.42862 9.00013 8.04733L9.72061 120.868C9.7501 125.487 14.7684 128.342 18.7536 126.007L116.099 68.9724ZM44.0768 41.5554C43.7262 41.1681 43.5473 40.6982 43.6072 40.199C43.6822 39.329 44.4585 38.7419 45.324 38.8815C50.7334 39.5085 55.7019 41.9725 59.4387 45.756C63.1083 49.4862 65.6508 54.4001 66.335 59.9724C67.1531 66.635 65.2552 72.8933 61.4925 77.7821C57.7298 82.6708 52.1471 86.0615 45.6401 86.8605C40.2674 87.5201 35.0895 86.3114 30.7105 83.7135C26.257 81.0018 22.6621 76.8935 20.657 71.9137C20.4781 71.4438 20.538 70.9446 20.7844 70.4839C21.2399 69.7517 22.1801 69.5133 22.9037 69.9778C24.5523 71.0665 26.4025 71.823 28.3946 72.2547C30.2599 72.6405 32.2745 72.7621 34.3042 72.5128C39.1396 71.9191 43.3118 69.3779 46.0815 65.7793C48.8513 62.1806 50.2709 57.4566 49.6686 52.5505C49.4008 50.37 48.7898 48.3546 47.8429 46.565C46.8811 44.6541 45.5834 42.969 44.0768 41.5554Z" fill="white"/>
</svg>
